<?xml version="1.0" encoding="utf-8"?>
<svg width="518" height="331" viewBox="0 0 518 331" xmlns="http://www.w3.org/2000/svg">
<rect id="frame" x="0" y="0" width="518" height="331" fill="#ffffbf" stroke="none" stroke-width="0"/>

<!-- Association BELONGS_TO -->
<g>
	<line x1="422" y1="102" x2="254" y2="102" stroke="#f46d43" stroke-width="2"/>
	<text x="308" y="119" fill="#3288bd" font-family="Verdana" font-size="12">0,N</text>
	<line x1="91" y1="102" x2="254" y2="102" stroke="#f46d43" stroke-width="2"/>
	<text x="178" y="119" fill="#3288bd" font-family="Verdana" font-size="12">1,1</text>
	<g>
		<path d="M289 77 a14 14 90 0 1 14 14 V102 h-98 V91 a14 14 90 0 1 14 -14" fill="#fdae61" stroke="#fdae61" stroke-width="0"/>
		<path d="M303 102 v11 a14 14 90 0 1 -14 14 H219 a14 14 90 0 1 -14 -14 V102 H98" fill="#fee08b" stroke="#fee08b" stroke-width="0"/>
		<rect x="205" y="77" width="98" height="50" fill="none" rx="14" stroke="#f46d43" stroke-width="2"/>
		<line x1="205" y1="102" x2="303" y2="102" stroke="#f46d43" stroke-width="1"/>
		<text x="212" y="94.75" fill="#000" font-family="Verdana" font-size="12">BELONGS_TO</text>
	</g>
</g>

<!-- Association HAS -->
<g>
	<line x1="254" y1="271" x2="422" y2="271" stroke="#f46d43" stroke-width="2"/>
	<text x="313" y="288" fill="#3288bd" font-family="Verdana" font-size="12">0,1</text>
	<line x1="422" y1="102" x2="422" y2="271" stroke="#f46d43" stroke-width="2"/>
	<text x="427" y="212" fill="#3288bd" font-family="Verdana" font-size="12">0,1</text>
	<g>
		<path d="M428 246 a14 14 90 0 1 14 14 V271 h-40 V260 a14 14 90 0 1 14 -14" fill="#fdae61" stroke="#fdae61" stroke-width="0"/>
		<path d="M442 271 v11 a14 14 90 0 1 -14 14 H416 a14 14 90 0 1 -14 -14 V271 H40" fill="#fee08b" stroke="#fee08b" stroke-width="0"/>
		<rect x="402" y="246" width="40" height="50" fill="none" rx="14" stroke="#f46d43" stroke-width="2"/>
		<line x1="402" y1="271" x2="442" y2="271" stroke="#f46d43" stroke-width="1"/>
		<text x="409" y="263.75" fill="#000" font-family="Verdana" font-size="12">HAS</text>
	</g>
</g>

<!-- Entity PARLIAMENTARY_GROUP -->
<g>
	<g>
		<rect x="9" y="77" width="164" height="25" fill="#abdda4" stroke="#abdda4" stroke-width="0" opacity="1"/>
		<rect x="9" y="102" width="164" height="25" fill="#e6f598" stroke="#e6f598" stroke-width="0" opacity="1"/>
		<rect x="9" y="77" width="164" height="50" fill="none" stroke="#66c2a5" stroke-width="2" opacity="1"/>
		<line x1="9" y1="102" x2="173" y2="102" stroke="#66c2a5" stroke-width="1"/>
	</g>
	<text x="14" y="94.75" fill="#000" font-family="Verdana" font-size="12">PARLIAMENTARY_GROUP</text>
	<text x="14" y="119.8" fill="#000" font-family="Verdana" font-size="12">nom</text>
	<line x1="14" y1="122" x2="42" y2="122" stroke="#000" stroke-width="1"/>
</g>

<!-- Entity MEMBER_OF_PARLIAMENT -->
<g>
	<g>
		<rect x="335" y="9" width="174" height="25" fill="#abdda4" stroke="#abdda4" stroke-width="0" opacity="1"/>
		<rect x="335" y="34" width="174" height="161" fill="#e6f598" stroke="#e6f598" stroke-width="0" opacity="1"/>
		<rect x="335" y="9" width="174" height="186" fill="none" stroke="#66c2a5" stroke-width="2" opacity="1"/>
		<line x1="335" y1="34" x2="509" y2="34" stroke="#66c2a5" stroke-width="1"/>
	</g>
	<text x="341" y="26.75" fill="#000" font-family="Verdana" font-size="12">MEMBER_OF_PARLIAMENT</text>
	<text x="340" y="51.8" fill="#000" font-family="Verdana" font-size="12">nom</text>
	<line x1="340" y1="54" x2="368" y2="54" stroke="#000" stroke-width="1"/>
	<text x="340" y="68.8" fill="#000" font-family="Verdana" font-size="12">prénom</text>
	<text x="340" y="85.8" fill="#000" font-family="Verdana" font-size="12">genre</text>
	<text x="340" y="102.8" fill="#000" font-family="Verdana" font-size="12">parti_politique</text>
	<text x="340" y="119.8" fill="#000" font-family="Verdana" font-size="12">profession</text>
	<text x="340" y="136.8" fill="#000" font-family="Verdana" font-size="12">photo</text>
	<text x="340" y="153.8" fill="#000" font-family="Verdana" font-size="12">mandat_en_cours</text>
	<text x="340" y="170.8" fill="#000" font-family="Verdana" font-size="12">link</text>
	<text x="340" y="187.8" fill="#000" font-family="Verdana" font-size="12">email</text>
</g>

<!-- Entity CONSTITUENCY -->
<g>
	<g>
		<rect x="200" y="220" width="108" height="25" fill="#abdda4" stroke="#abdda4" stroke-width="0" opacity="1"/>
		<rect x="200" y="245" width="108" height="77" fill="#e6f598" stroke="#e6f598" stroke-width="0" opacity="1"/>
		<rect x="200" y="220" width="108" height="102" fill="none" stroke="#66c2a5" stroke-width="2" opacity="1"/>
		<line x1="200" y1="245" x2="308" y2="245" stroke="#66c2a5" stroke-width="1"/>
	</g>
	<text x="206" y="237.75" fill="#000" font-family="Verdana" font-size="12">CONSTITUENCY</text>
	<text x="205" y="262.8" fill="#000" font-family="Verdana" font-size="12">numéro</text>
	<line x1="205" y1="265" x2="252" y2="265" stroke="#000" stroke-width="1"/>
	<text x="205" y="279.8" fill="#000" font-family="Verdana" font-size="12">département</text>
	<text x="205" y="296.8" fill="#000" font-family="Verdana" font-size="12">code</text>
	<text x="205" y="313.8" fill="#000" font-family="Verdana" font-size="12">polygon</text>
</g>
</svg>